G04 EAGLE Gerber RS-274X export*
G75*
%MOMM*%
%FSLAX34Y34*%
%LPD*%
%INSolder side*%
%IPPOS*%
%AMOC8*
5,1,8,0,0,1.08239X$1,22.5*%
G01*
%ADD10C,0.076200*%
%ADD11P,1.429621X8X22.500000*%
%ADD12C,1.320800*%
%ADD13C,1.676400*%
%ADD14P,1.814519X8X22.500000*%
%ADD15P,1.814519X8X112.500000*%
%ADD16P,1.814519X8X292.500000*%
%ADD17P,2.089446X8X22.500000*%
%ADD18C,0.609600*%
%ADD19C,0.152400*%
%ADD20C,0.304800*%


D10*
X329819Y155829D02*
X327731Y146431D01*
X325642Y152696D01*
X323554Y146431D01*
X321465Y155829D01*
X318237Y155829D02*
X316148Y146431D01*
X314060Y152696D01*
X311971Y146431D01*
X309883Y155829D01*
X305985Y146431D02*
X301808Y146431D01*
X305985Y146431D02*
X305985Y155829D01*
X301808Y155829D01*
X302852Y151652D02*
X305985Y151652D01*
X293418Y150086D02*
X287153Y150086D01*
X278266Y146431D02*
X275133Y146431D01*
X275044Y146433D01*
X274956Y146439D01*
X274868Y146448D01*
X274780Y146461D01*
X274693Y146478D01*
X274607Y146498D01*
X274522Y146523D01*
X274437Y146550D01*
X274354Y146582D01*
X274273Y146616D01*
X274193Y146655D01*
X274115Y146696D01*
X274038Y146741D01*
X273964Y146789D01*
X273891Y146840D01*
X273821Y146894D01*
X273754Y146952D01*
X273688Y147012D01*
X273626Y147074D01*
X273566Y147140D01*
X273508Y147207D01*
X273454Y147277D01*
X273403Y147350D01*
X273355Y147424D01*
X273310Y147501D01*
X273269Y147579D01*
X273230Y147659D01*
X273196Y147740D01*
X273164Y147823D01*
X273137Y147908D01*
X273112Y147993D01*
X273092Y148079D01*
X273075Y148166D01*
X273062Y148254D01*
X273053Y148342D01*
X273047Y148430D01*
X273045Y148519D01*
X273045Y149564D01*
X273047Y149653D01*
X273053Y149741D01*
X273062Y149829D01*
X273075Y149917D01*
X273092Y150004D01*
X273112Y150090D01*
X273137Y150175D01*
X273164Y150260D01*
X273196Y150343D01*
X273230Y150424D01*
X273269Y150504D01*
X273310Y150582D01*
X273355Y150659D01*
X273403Y150733D01*
X273454Y150806D01*
X273508Y150876D01*
X273566Y150943D01*
X273626Y151009D01*
X273688Y151071D01*
X273754Y151131D01*
X273821Y151189D01*
X273891Y151243D01*
X273964Y151294D01*
X274038Y151342D01*
X274115Y151387D01*
X274193Y151428D01*
X274273Y151467D01*
X274354Y151501D01*
X274437Y151533D01*
X274522Y151560D01*
X274607Y151585D01*
X274693Y151605D01*
X274780Y151622D01*
X274868Y151635D01*
X274956Y151644D01*
X275044Y151650D01*
X275133Y151652D01*
X278266Y151652D01*
X278266Y155829D01*
X273045Y155829D01*
X269122Y146431D02*
X265989Y146431D01*
X265900Y146433D01*
X265812Y146439D01*
X265724Y146448D01*
X265636Y146461D01*
X265549Y146478D01*
X265463Y146498D01*
X265378Y146523D01*
X265293Y146550D01*
X265210Y146582D01*
X265129Y146616D01*
X265049Y146655D01*
X264971Y146696D01*
X264894Y146741D01*
X264820Y146789D01*
X264747Y146840D01*
X264677Y146894D01*
X264610Y146952D01*
X264544Y147012D01*
X264482Y147074D01*
X264422Y147140D01*
X264364Y147207D01*
X264310Y147277D01*
X264259Y147350D01*
X264211Y147424D01*
X264166Y147501D01*
X264125Y147579D01*
X264086Y147659D01*
X264052Y147740D01*
X264020Y147823D01*
X263993Y147908D01*
X263968Y147993D01*
X263948Y148079D01*
X263931Y148166D01*
X263918Y148254D01*
X263909Y148342D01*
X263903Y148430D01*
X263901Y148519D01*
X263901Y149564D01*
X263903Y149653D01*
X263909Y149741D01*
X263918Y149829D01*
X263931Y149917D01*
X263948Y150004D01*
X263968Y150090D01*
X263993Y150175D01*
X264020Y150260D01*
X264052Y150343D01*
X264086Y150424D01*
X264125Y150504D01*
X264166Y150582D01*
X264211Y150659D01*
X264259Y150733D01*
X264310Y150806D01*
X264364Y150876D01*
X264422Y150943D01*
X264482Y151009D01*
X264544Y151071D01*
X264610Y151131D01*
X264677Y151189D01*
X264747Y151243D01*
X264820Y151294D01*
X264894Y151342D01*
X264971Y151387D01*
X265049Y151428D01*
X265129Y151467D01*
X265210Y151501D01*
X265293Y151533D01*
X265378Y151560D01*
X265463Y151585D01*
X265549Y151605D01*
X265636Y151622D01*
X265724Y151635D01*
X265812Y151644D01*
X265900Y151650D01*
X265989Y151652D01*
X269122Y151652D01*
X269122Y155829D01*
X263901Y155829D01*
X259978Y146431D02*
X256845Y146431D01*
X256756Y146433D01*
X256668Y146439D01*
X256580Y146448D01*
X256492Y146461D01*
X256405Y146478D01*
X256319Y146498D01*
X256234Y146523D01*
X256149Y146550D01*
X256066Y146582D01*
X255985Y146616D01*
X255905Y146655D01*
X255827Y146696D01*
X255750Y146741D01*
X255676Y146789D01*
X255603Y146840D01*
X255533Y146894D01*
X255466Y146952D01*
X255400Y147012D01*
X255338Y147074D01*
X255278Y147140D01*
X255220Y147207D01*
X255166Y147277D01*
X255115Y147350D01*
X255067Y147424D01*
X255022Y147501D01*
X254981Y147579D01*
X254942Y147659D01*
X254908Y147740D01*
X254876Y147823D01*
X254849Y147908D01*
X254824Y147993D01*
X254804Y148079D01*
X254787Y148166D01*
X254774Y148254D01*
X254765Y148342D01*
X254759Y148430D01*
X254757Y148519D01*
X254757Y149564D01*
X254759Y149653D01*
X254765Y149741D01*
X254774Y149829D01*
X254787Y149917D01*
X254804Y150004D01*
X254824Y150090D01*
X254849Y150175D01*
X254876Y150260D01*
X254908Y150343D01*
X254942Y150424D01*
X254981Y150504D01*
X255022Y150582D01*
X255067Y150659D01*
X255115Y150733D01*
X255166Y150806D01*
X255220Y150876D01*
X255278Y150943D01*
X255338Y151009D01*
X255400Y151071D01*
X255466Y151131D01*
X255533Y151189D01*
X255603Y151243D01*
X255676Y151294D01*
X255750Y151342D01*
X255827Y151387D01*
X255905Y151428D01*
X255985Y151467D01*
X256066Y151501D01*
X256149Y151533D01*
X256234Y151560D01*
X256319Y151585D01*
X256405Y151605D01*
X256492Y151622D01*
X256580Y151635D01*
X256668Y151644D01*
X256756Y151650D01*
X256845Y151652D01*
X259978Y151652D01*
X259978Y155829D01*
X254757Y155829D01*
X245694Y155829D02*
X245694Y146431D01*
X243084Y146431D01*
X243007Y146433D01*
X242931Y146439D01*
X242854Y146448D01*
X242778Y146461D01*
X242704Y146478D01*
X242629Y146498D01*
X242556Y146523D01*
X242485Y146550D01*
X242414Y146581D01*
X242346Y146616D01*
X242279Y146654D01*
X242214Y146695D01*
X242151Y146739D01*
X242091Y146786D01*
X242032Y146837D01*
X241977Y146890D01*
X241924Y146945D01*
X241873Y147004D01*
X241826Y147064D01*
X241782Y147127D01*
X241741Y147192D01*
X241703Y147259D01*
X241668Y147327D01*
X241637Y147398D01*
X241610Y147469D01*
X241585Y147542D01*
X241565Y147616D01*
X241548Y147691D01*
X241535Y147767D01*
X241526Y147843D01*
X241520Y147920D01*
X241518Y147997D01*
X241517Y147997D02*
X241517Y151130D01*
X241518Y151130D02*
X241520Y151207D01*
X241526Y151283D01*
X241535Y151360D01*
X241548Y151436D01*
X241565Y151511D01*
X241585Y151585D01*
X241610Y151658D01*
X241637Y151729D01*
X241668Y151800D01*
X241703Y151868D01*
X241741Y151935D01*
X241782Y152000D01*
X241826Y152063D01*
X241873Y152123D01*
X241924Y152182D01*
X241977Y152237D01*
X242032Y152290D01*
X242091Y152341D01*
X242151Y152388D01*
X242214Y152432D01*
X242279Y152473D01*
X242346Y152511D01*
X242414Y152546D01*
X242485Y152577D01*
X242556Y152604D01*
X242629Y152629D01*
X242704Y152649D01*
X242779Y152666D01*
X242854Y152679D01*
X242931Y152688D01*
X243007Y152694D01*
X243084Y152696D01*
X245694Y152696D01*
X238120Y143298D02*
X237076Y143298D01*
X233943Y152696D01*
X238120Y152696D02*
X236031Y146431D01*
X225174Y146431D02*
X225174Y155829D01*
X222563Y155829D01*
X222462Y155827D01*
X222361Y155821D01*
X222260Y155811D01*
X222160Y155798D01*
X222060Y155780D01*
X221961Y155759D01*
X221863Y155733D01*
X221766Y155704D01*
X221670Y155672D01*
X221576Y155635D01*
X221483Y155595D01*
X221391Y155551D01*
X221302Y155504D01*
X221214Y155453D01*
X221128Y155399D01*
X221045Y155342D01*
X220963Y155282D01*
X220885Y155218D01*
X220808Y155152D01*
X220735Y155082D01*
X220664Y155010D01*
X220596Y154935D01*
X220531Y154857D01*
X220469Y154777D01*
X220410Y154695D01*
X220354Y154610D01*
X220302Y154524D01*
X220253Y154435D01*
X220207Y154344D01*
X220166Y154252D01*
X220127Y154158D01*
X220093Y154063D01*
X220062Y153967D01*
X220035Y153869D01*
X220011Y153771D01*
X219992Y153671D01*
X219976Y153571D01*
X219964Y153471D01*
X219956Y153370D01*
X219952Y153269D01*
X219952Y153167D01*
X219956Y153066D01*
X219964Y152965D01*
X219976Y152865D01*
X219992Y152765D01*
X220011Y152665D01*
X220035Y152567D01*
X220062Y152469D01*
X220093Y152373D01*
X220127Y152278D01*
X220166Y152184D01*
X220207Y152092D01*
X220253Y152001D01*
X220302Y151913D01*
X220354Y151826D01*
X220410Y151741D01*
X220469Y151659D01*
X220531Y151579D01*
X220596Y151501D01*
X220664Y151426D01*
X220735Y151354D01*
X220808Y151284D01*
X220885Y151218D01*
X220963Y151154D01*
X221045Y151094D01*
X221128Y151037D01*
X221214Y150983D01*
X221302Y150932D01*
X221391Y150885D01*
X221483Y150841D01*
X221576Y150801D01*
X221670Y150764D01*
X221766Y150732D01*
X221863Y150703D01*
X221961Y150677D01*
X222060Y150656D01*
X222160Y150638D01*
X222260Y150625D01*
X222361Y150615D01*
X222462Y150609D01*
X222563Y150607D01*
X222563Y150608D02*
X225174Y150608D01*
X222041Y150608D02*
X219953Y146431D01*
X214024Y146431D02*
X211936Y146431D01*
X214024Y146431D02*
X214113Y146433D01*
X214201Y146439D01*
X214289Y146448D01*
X214377Y146461D01*
X214464Y146478D01*
X214550Y146498D01*
X214635Y146523D01*
X214720Y146550D01*
X214803Y146582D01*
X214884Y146616D01*
X214964Y146655D01*
X215042Y146696D01*
X215119Y146741D01*
X215193Y146789D01*
X215266Y146840D01*
X215336Y146894D01*
X215403Y146952D01*
X215469Y147012D01*
X215531Y147074D01*
X215591Y147140D01*
X215649Y147207D01*
X215703Y147277D01*
X215754Y147350D01*
X215802Y147424D01*
X215847Y147501D01*
X215888Y147579D01*
X215927Y147659D01*
X215961Y147740D01*
X215993Y147823D01*
X216020Y147908D01*
X216045Y147993D01*
X216065Y148079D01*
X216082Y148166D01*
X216095Y148254D01*
X216104Y148342D01*
X216110Y148430D01*
X216112Y148519D01*
X216113Y148519D02*
X216113Y153741D01*
X216112Y153741D02*
X216110Y153830D01*
X216104Y153918D01*
X216095Y154006D01*
X216082Y154094D01*
X216065Y154181D01*
X216045Y154267D01*
X216020Y154352D01*
X215993Y154437D01*
X215961Y154520D01*
X215927Y154601D01*
X215888Y154681D01*
X215847Y154759D01*
X215802Y154836D01*
X215754Y154910D01*
X215703Y154983D01*
X215649Y155053D01*
X215591Y155120D01*
X215531Y155186D01*
X215469Y155248D01*
X215403Y155308D01*
X215336Y155366D01*
X215266Y155420D01*
X215193Y155471D01*
X215119Y155519D01*
X215042Y155564D01*
X214964Y155605D01*
X214884Y155644D01*
X214803Y155678D01*
X214720Y155710D01*
X214635Y155737D01*
X214550Y155762D01*
X214464Y155782D01*
X214377Y155799D01*
X214289Y155812D01*
X214201Y155821D01*
X214113Y155827D01*
X214024Y155829D01*
X211936Y155829D01*
X263271Y194098D02*
X272669Y194098D01*
X263271Y193054D02*
X263271Y195143D01*
X272669Y195143D02*
X272669Y193054D01*
X272669Y199195D02*
X263271Y199195D01*
X267448Y202328D02*
X272669Y199195D01*
X267448Y202328D02*
X272669Y205461D01*
X263271Y205461D01*
X263271Y209254D02*
X272669Y212386D01*
X263271Y215519D01*
X265621Y214736D02*
X265621Y210037D01*
D11*
X254000Y330200D03*
D12*
X203200Y330200D03*
D13*
X292100Y241300D03*
X317500Y241300D03*
X317500Y317500D03*
X292100Y317500D03*
X342900Y241300D03*
X368300Y241300D03*
X342900Y317500D03*
X368300Y317500D03*
D14*
X406400Y190500D03*
X431800Y190500D03*
D15*
X203200Y177800D03*
X203200Y279400D03*
D16*
X241300Y279400D03*
X241300Y177800D03*
X419100Y342900D03*
X419100Y241300D03*
D17*
X304800Y177800D03*
X355600Y177800D03*
D18*
X419100Y336550D02*
X419100Y342900D01*
X419100Y336550D02*
X342900Y260350D01*
X342900Y241300D01*
D19*
X406400Y190500D02*
X406908Y190500D01*
D18*
X406908Y229108D02*
X419100Y241300D01*
X406908Y229108D02*
X406908Y190500D01*
X292100Y190500D02*
X292100Y241300D01*
X292100Y190500D02*
X304800Y177800D01*
X431800Y190500D02*
X431800Y222250D01*
X438150Y228600D01*
X438150Y260350D01*
X425450Y273050D01*
X368300Y273050D01*
X361950Y266700D01*
D20*
X355600Y260350D01*
X355600Y228600D02*
X342900Y215900D01*
X355600Y228600D02*
X355600Y260350D01*
D18*
X342900Y215900D02*
X304800Y177800D01*
X292100Y241300D02*
X292100Y255016D01*
X310642Y273558D01*
X316992Y279908D01*
D20*
X320965Y330200D02*
X254000Y330200D01*
X323850Y330200D01*
X329184Y292100D02*
X316992Y279908D01*
X330200Y323850D02*
X323850Y330200D01*
X330200Y293116D02*
X310642Y273558D01*
X330200Y293116D02*
X330200Y323850D01*
D19*
X368300Y241300D02*
X367284Y240792D01*
X242316Y280416D02*
X241300Y279400D01*
D18*
X255016Y280416D02*
X292100Y317500D01*
X255016Y280416D02*
X242316Y280416D01*
X355600Y177800D02*
X367284Y189484D01*
X367284Y240792D01*
X355600Y177800D02*
X368300Y165100D01*
X450850Y184150D02*
X450850Y342900D01*
X438150Y355600D01*
X209550Y355600D01*
X184150Y266700D02*
X196850Y254000D01*
X228600Y254000D01*
X241300Y266700D01*
X241300Y279400D01*
X368300Y165100D02*
X431800Y165100D01*
X450850Y184150D01*
X209550Y355600D02*
X184150Y330200D01*
X184150Y266700D01*
X203200Y330200D02*
X215900Y342900D01*
X336550Y342900D01*
X342900Y336550D01*
X342900Y317500D01*
X317500Y260350D02*
X317500Y241300D01*
X317500Y260350D02*
X342900Y285750D01*
X342900Y317500D01*
X203200Y330200D02*
X203200Y279400D01*
D19*
X242316Y207264D02*
X242316Y178308D01*
X241300Y177800D01*
D20*
X203708Y178308D02*
X203200Y177800D01*
X203708Y178308D02*
X242316Y178308D01*
X241300Y177800D02*
X241300Y228600D01*
X292100Y279400D01*
X316992Y316992D02*
X317500Y317500D01*
D18*
X317500Y304800D01*
X242316Y229616D01*
X242316Y178308D01*
X241300Y177800D02*
X203200Y177800D01*
M02*
