G04 EAGLE Gerber RS-274X export*
G75*
%MOMM*%
%FSLAX34Y34*%
%LPD*%
%INBottom Copper*%
%IPPOS*%
%AMOC8*
5,1,8,0,0,1.08239X$1,22.5*%
G01*
%ADD10C,0.228600*%
%ADD11P,1.429621X8X22.500000*%
%ADD12C,1.320800*%
%ADD13C,1.676400*%
%ADD14P,1.814519X8X22.500000*%
%ADD15P,1.814519X8X112.500000*%
%ADD16P,1.814519X8X292.500000*%
%ADD17P,2.089446X8X22.500000*%
%ADD18C,0.609600*%
%ADD19C,0.152400*%
%ADD20C,0.304800*%


D10*
X380379Y157607D02*
X380379Y144653D01*
X381818Y144653D02*
X378939Y144653D01*
X378939Y157607D02*
X381818Y157607D01*
X372377Y157607D02*
X372377Y144653D01*
X368059Y150410D02*
X372377Y157607D01*
X368059Y150410D02*
X363741Y157607D01*
X363741Y144653D01*
X357320Y144653D02*
X353002Y157607D01*
X348684Y144653D01*
X349763Y147892D02*
X356240Y147892D01*
X335418Y149691D02*
X326782Y149691D01*
X313131Y157607D02*
X310252Y144653D01*
X307373Y153289D01*
X304495Y144653D01*
X301616Y157607D01*
X295792Y157607D02*
X292913Y144653D01*
X290035Y153289D01*
X287156Y144653D01*
X284277Y157607D01*
X277624Y144653D02*
X271867Y144653D01*
X277624Y144653D02*
X277624Y157607D01*
X271867Y157607D01*
X273306Y151850D02*
X277624Y151850D01*
X254997Y157608D02*
X254884Y157606D01*
X254771Y157600D01*
X254658Y157590D01*
X254546Y157576D01*
X254435Y157559D01*
X254324Y157537D01*
X254213Y157512D01*
X254104Y157483D01*
X253996Y157449D01*
X253889Y157413D01*
X253784Y157372D01*
X253680Y157328D01*
X253577Y157280D01*
X253476Y157229D01*
X253378Y157174D01*
X253281Y157116D01*
X253186Y157054D01*
X253093Y156989D01*
X253003Y156921D01*
X252915Y156850D01*
X252830Y156776D01*
X252747Y156699D01*
X252667Y156619D01*
X252590Y156536D01*
X252516Y156451D01*
X252445Y156363D01*
X252377Y156273D01*
X252312Y156180D01*
X252250Y156085D01*
X252192Y155989D01*
X252137Y155890D01*
X252086Y155789D01*
X252038Y155686D01*
X251994Y155582D01*
X251953Y155477D01*
X251917Y155370D01*
X251883Y155262D01*
X251854Y155153D01*
X251829Y155042D01*
X251807Y154931D01*
X251790Y154820D01*
X251776Y154708D01*
X251766Y154595D01*
X251760Y154482D01*
X251758Y154369D01*
X254997Y157607D02*
X255125Y157605D01*
X255252Y157599D01*
X255379Y157589D01*
X255506Y157576D01*
X255633Y157558D01*
X255758Y157537D01*
X255884Y157511D01*
X256008Y157482D01*
X256131Y157449D01*
X256253Y157413D01*
X256374Y157372D01*
X256494Y157328D01*
X256613Y157281D01*
X256729Y157229D01*
X256845Y157174D01*
X256958Y157116D01*
X257070Y157054D01*
X257179Y156989D01*
X257287Y156920D01*
X257393Y156848D01*
X257496Y156773D01*
X257597Y156695D01*
X257695Y156614D01*
X257791Y156530D01*
X257884Y156442D01*
X257975Y156352D01*
X258062Y156260D01*
X258147Y156164D01*
X258229Y156067D01*
X258308Y155966D01*
X258384Y155863D01*
X258456Y155758D01*
X258526Y155651D01*
X258592Y155542D01*
X258654Y155431D01*
X258713Y155318D01*
X258769Y155203D01*
X258821Y155086D01*
X258870Y154968D01*
X258914Y154849D01*
X258956Y154728D01*
X252838Y151850D02*
X252755Y151933D01*
X252674Y152018D01*
X252596Y152106D01*
X252521Y152196D01*
X252450Y152289D01*
X252381Y152384D01*
X252316Y152482D01*
X252254Y152581D01*
X252195Y152683D01*
X252140Y152787D01*
X252088Y152892D01*
X252040Y152999D01*
X251996Y153108D01*
X251955Y153218D01*
X251918Y153329D01*
X251885Y153442D01*
X251856Y153555D01*
X251830Y153670D01*
X251808Y153785D01*
X251791Y153901D01*
X251777Y154018D01*
X251767Y154134D01*
X251761Y154252D01*
X251759Y154369D01*
X252838Y151850D02*
X258955Y144653D01*
X251759Y144653D01*
X245267Y151130D02*
X245264Y151385D01*
X245255Y151640D01*
X245240Y151894D01*
X245218Y152148D01*
X245191Y152401D01*
X245158Y152654D01*
X245118Y152906D01*
X245073Y153156D01*
X245022Y153406D01*
X244964Y153654D01*
X244901Y153901D01*
X244832Y154147D01*
X244757Y154390D01*
X244676Y154632D01*
X244590Y154872D01*
X244498Y155109D01*
X244400Y155345D01*
X244296Y155577D01*
X244187Y155808D01*
X244153Y155902D01*
X244115Y155994D01*
X244074Y156086D01*
X244029Y156175D01*
X243981Y156263D01*
X243930Y156349D01*
X243876Y156433D01*
X243818Y156515D01*
X243758Y156595D01*
X243694Y156672D01*
X243628Y156747D01*
X243559Y156819D01*
X243487Y156889D01*
X243412Y156956D01*
X243336Y157020D01*
X243256Y157081D01*
X243175Y157140D01*
X243091Y157195D01*
X243006Y157247D01*
X242918Y157295D01*
X242829Y157341D01*
X242738Y157383D01*
X242646Y157421D01*
X242552Y157456D01*
X242457Y157487D01*
X242361Y157515D01*
X242264Y157540D01*
X242166Y157560D01*
X242067Y157577D01*
X241968Y157590D01*
X241868Y157599D01*
X241768Y157605D01*
X241668Y157607D01*
X241568Y157605D01*
X241468Y157599D01*
X241368Y157590D01*
X241269Y157577D01*
X241170Y157560D01*
X241072Y157540D01*
X240975Y157515D01*
X240879Y157487D01*
X240784Y157456D01*
X240690Y157421D01*
X240598Y157383D01*
X240507Y157341D01*
X240418Y157295D01*
X240330Y157247D01*
X240245Y157195D01*
X240161Y157140D01*
X240080Y157081D01*
X240000Y157020D01*
X239924Y156956D01*
X239849Y156889D01*
X239777Y156819D01*
X239708Y156747D01*
X239642Y156672D01*
X239578Y156595D01*
X239518Y156515D01*
X239460Y156433D01*
X239406Y156349D01*
X239355Y156263D01*
X239307Y156175D01*
X239262Y156086D01*
X239221Y155994D01*
X239183Y155902D01*
X239149Y155808D01*
X239150Y155808D02*
X239041Y155577D01*
X238937Y155345D01*
X238839Y155109D01*
X238747Y154872D01*
X238661Y154632D01*
X238580Y154390D01*
X238505Y154147D01*
X238436Y153901D01*
X238373Y153654D01*
X238315Y153406D01*
X238264Y153156D01*
X238219Y152906D01*
X238179Y152654D01*
X238146Y152401D01*
X238119Y152148D01*
X238097Y151894D01*
X238082Y151640D01*
X238073Y151385D01*
X238070Y151130D01*
X245267Y151130D02*
X245264Y150875D01*
X245255Y150620D01*
X245240Y150366D01*
X245218Y150112D01*
X245191Y149859D01*
X245158Y149606D01*
X245118Y149354D01*
X245073Y149104D01*
X245022Y148854D01*
X244964Y148606D01*
X244901Y148359D01*
X244832Y148113D01*
X244757Y147870D01*
X244676Y147628D01*
X244590Y147388D01*
X244498Y147151D01*
X244400Y146916D01*
X244296Y146683D01*
X244188Y146452D01*
X244187Y146452D02*
X244153Y146358D01*
X244115Y146266D01*
X244074Y146174D01*
X244029Y146085D01*
X243981Y145997D01*
X243930Y145911D01*
X243876Y145827D01*
X243818Y145745D01*
X243758Y145665D01*
X243694Y145588D01*
X243628Y145513D01*
X243559Y145441D01*
X243487Y145371D01*
X243412Y145304D01*
X243336Y145240D01*
X243256Y145179D01*
X243175Y145120D01*
X243091Y145065D01*
X243006Y145013D01*
X242918Y144965D01*
X242829Y144919D01*
X242738Y144877D01*
X242646Y144839D01*
X242552Y144804D01*
X242457Y144773D01*
X242361Y144745D01*
X242264Y144720D01*
X242166Y144700D01*
X242067Y144683D01*
X241968Y144670D01*
X241868Y144661D01*
X241768Y144655D01*
X241668Y144653D01*
X239149Y146452D02*
X239041Y146683D01*
X238937Y146916D01*
X238839Y147151D01*
X238747Y147388D01*
X238661Y147628D01*
X238580Y147870D01*
X238505Y148113D01*
X238436Y148359D01*
X238373Y148606D01*
X238315Y148854D01*
X238264Y149104D01*
X238219Y149354D01*
X238179Y149606D01*
X238146Y149859D01*
X238119Y150112D01*
X238097Y150366D01*
X238082Y150620D01*
X238073Y150875D01*
X238070Y151130D01*
X239149Y146452D02*
X239183Y146358D01*
X239221Y146266D01*
X239262Y146174D01*
X239307Y146085D01*
X239355Y145997D01*
X239406Y145911D01*
X239460Y145827D01*
X239518Y145745D01*
X239578Y145665D01*
X239642Y145588D01*
X239708Y145513D01*
X239777Y145441D01*
X239849Y145371D01*
X239924Y145304D01*
X240001Y145240D01*
X240080Y145178D01*
X240161Y145120D01*
X240245Y145065D01*
X240330Y145013D01*
X240418Y144965D01*
X240507Y144919D01*
X240598Y144877D01*
X240690Y144839D01*
X240784Y144804D01*
X240879Y144773D01*
X240975Y144745D01*
X241072Y144720D01*
X241170Y144700D01*
X241269Y144683D01*
X241368Y144670D01*
X241468Y144661D01*
X241568Y144655D01*
X241668Y144653D01*
X244547Y147532D02*
X238790Y154728D01*
X231578Y154728D02*
X227980Y157607D01*
X227980Y144653D01*
X231578Y144653D02*
X224382Y144653D01*
X217889Y148251D02*
X217887Y148370D01*
X217881Y148489D01*
X217871Y148607D01*
X217858Y148726D01*
X217840Y148843D01*
X217818Y148960D01*
X217793Y149076D01*
X217764Y149192D01*
X217731Y149306D01*
X217694Y149419D01*
X217654Y149531D01*
X217609Y149642D01*
X217562Y149751D01*
X217510Y149858D01*
X217455Y149963D01*
X217397Y150067D01*
X217335Y150169D01*
X217270Y150268D01*
X217202Y150366D01*
X217130Y150461D01*
X217056Y150554D01*
X216978Y150644D01*
X216897Y150731D01*
X216814Y150816D01*
X216728Y150898D01*
X216639Y150977D01*
X216548Y151053D01*
X216454Y151126D01*
X216357Y151196D01*
X216259Y151263D01*
X216158Y151327D01*
X216056Y151387D01*
X215951Y151443D01*
X215844Y151496D01*
X215736Y151546D01*
X215627Y151592D01*
X215515Y151634D01*
X215403Y151673D01*
X215289Y151708D01*
X215174Y151739D01*
X215058Y151766D01*
X214942Y151790D01*
X214824Y151809D01*
X214707Y151825D01*
X214588Y151837D01*
X214469Y151845D01*
X214350Y151849D01*
X214232Y151849D01*
X214113Y151845D01*
X213994Y151837D01*
X213875Y151825D01*
X213758Y151809D01*
X213640Y151790D01*
X213524Y151766D01*
X213408Y151739D01*
X213293Y151708D01*
X213179Y151673D01*
X213067Y151634D01*
X212955Y151592D01*
X212846Y151546D01*
X212738Y151496D01*
X212631Y151443D01*
X212526Y151387D01*
X212424Y151327D01*
X212323Y151263D01*
X212225Y151196D01*
X212128Y151126D01*
X212034Y151053D01*
X211943Y150977D01*
X211854Y150898D01*
X211768Y150816D01*
X211685Y150731D01*
X211604Y150644D01*
X211526Y150554D01*
X211452Y150461D01*
X211380Y150366D01*
X211312Y150268D01*
X211247Y150169D01*
X211185Y150067D01*
X211127Y149963D01*
X211072Y149858D01*
X211020Y149751D01*
X210973Y149642D01*
X210928Y149531D01*
X210888Y149419D01*
X210851Y149306D01*
X210818Y149192D01*
X210789Y149076D01*
X210764Y148960D01*
X210742Y148843D01*
X210724Y148726D01*
X210711Y148607D01*
X210701Y148489D01*
X210695Y148370D01*
X210693Y148251D01*
X210695Y148132D01*
X210701Y148013D01*
X210711Y147895D01*
X210724Y147776D01*
X210742Y147659D01*
X210764Y147542D01*
X210789Y147426D01*
X210818Y147310D01*
X210851Y147196D01*
X210888Y147083D01*
X210928Y146971D01*
X210973Y146860D01*
X211020Y146751D01*
X211072Y146644D01*
X211127Y146539D01*
X211185Y146435D01*
X211247Y146333D01*
X211312Y146234D01*
X211380Y146136D01*
X211452Y146041D01*
X211526Y145948D01*
X211604Y145858D01*
X211685Y145771D01*
X211768Y145686D01*
X211854Y145604D01*
X211943Y145525D01*
X212034Y145449D01*
X212128Y145376D01*
X212225Y145306D01*
X212323Y145239D01*
X212424Y145175D01*
X212526Y145115D01*
X212631Y145059D01*
X212738Y145006D01*
X212846Y144956D01*
X212955Y144910D01*
X213067Y144868D01*
X213179Y144829D01*
X213293Y144794D01*
X213408Y144763D01*
X213524Y144736D01*
X213640Y144712D01*
X213758Y144693D01*
X213875Y144677D01*
X213994Y144665D01*
X214113Y144657D01*
X214232Y144653D01*
X214350Y144653D01*
X214469Y144657D01*
X214588Y144665D01*
X214707Y144677D01*
X214824Y144693D01*
X214942Y144712D01*
X215058Y144736D01*
X215174Y144763D01*
X215289Y144794D01*
X215403Y144829D01*
X215515Y144868D01*
X215627Y144910D01*
X215736Y144956D01*
X215844Y145006D01*
X215951Y145059D01*
X216056Y145115D01*
X216158Y145175D01*
X216259Y145239D01*
X216357Y145306D01*
X216454Y145376D01*
X216548Y145449D01*
X216639Y145525D01*
X216728Y145604D01*
X216814Y145686D01*
X216897Y145771D01*
X216978Y145858D01*
X217056Y145948D01*
X217130Y146041D01*
X217202Y146136D01*
X217270Y146234D01*
X217335Y146333D01*
X217397Y146435D01*
X217455Y146539D01*
X217510Y146644D01*
X217562Y146751D01*
X217609Y146860D01*
X217654Y146971D01*
X217694Y147083D01*
X217731Y147196D01*
X217764Y147310D01*
X217793Y147426D01*
X217818Y147542D01*
X217840Y147659D01*
X217858Y147776D01*
X217871Y147895D01*
X217881Y148013D01*
X217887Y148132D01*
X217889Y148251D01*
X217170Y154728D02*
X217168Y154834D01*
X217162Y154941D01*
X217152Y155047D01*
X217139Y155152D01*
X217121Y155257D01*
X217099Y155361D01*
X217074Y155465D01*
X217045Y155567D01*
X217012Y155668D01*
X216976Y155768D01*
X216935Y155867D01*
X216891Y155963D01*
X216844Y156059D01*
X216793Y156152D01*
X216739Y156244D01*
X216681Y156333D01*
X216620Y156420D01*
X216556Y156505D01*
X216489Y156588D01*
X216419Y156668D01*
X216345Y156745D01*
X216270Y156819D01*
X216191Y156891D01*
X216110Y156960D01*
X216026Y157025D01*
X215940Y157088D01*
X215852Y157147D01*
X215761Y157203D01*
X215669Y157256D01*
X215574Y157305D01*
X215478Y157351D01*
X215380Y157393D01*
X215281Y157431D01*
X215181Y157466D01*
X215079Y157497D01*
X214976Y157524D01*
X214872Y157548D01*
X214768Y157567D01*
X214662Y157583D01*
X214557Y157595D01*
X214451Y157603D01*
X214344Y157607D01*
X214238Y157607D01*
X214131Y157603D01*
X214025Y157595D01*
X213920Y157583D01*
X213814Y157567D01*
X213710Y157548D01*
X213606Y157524D01*
X213503Y157497D01*
X213401Y157466D01*
X213301Y157431D01*
X213202Y157393D01*
X213104Y157351D01*
X213008Y157305D01*
X212913Y157256D01*
X212821Y157203D01*
X212730Y157147D01*
X212642Y157088D01*
X212556Y157025D01*
X212472Y156960D01*
X212391Y156891D01*
X212312Y156819D01*
X212237Y156745D01*
X212163Y156668D01*
X212093Y156588D01*
X212026Y156505D01*
X211962Y156420D01*
X211901Y156333D01*
X211843Y156244D01*
X211789Y156152D01*
X211738Y156059D01*
X211691Y155963D01*
X211647Y155867D01*
X211606Y155768D01*
X211570Y155668D01*
X211537Y155567D01*
X211508Y155465D01*
X211483Y155361D01*
X211461Y155257D01*
X211443Y155152D01*
X211430Y155047D01*
X211420Y154941D01*
X211414Y154834D01*
X211412Y154728D01*
X211414Y154622D01*
X211420Y154515D01*
X211430Y154409D01*
X211443Y154304D01*
X211461Y154199D01*
X211483Y154095D01*
X211508Y153991D01*
X211537Y153889D01*
X211570Y153788D01*
X211606Y153688D01*
X211647Y153589D01*
X211691Y153493D01*
X211738Y153397D01*
X211789Y153304D01*
X211843Y153212D01*
X211901Y153123D01*
X211962Y153036D01*
X212026Y152951D01*
X212093Y152868D01*
X212163Y152788D01*
X212237Y152711D01*
X212312Y152637D01*
X212391Y152565D01*
X212472Y152496D01*
X212556Y152431D01*
X212642Y152368D01*
X212730Y152309D01*
X212821Y152253D01*
X212913Y152200D01*
X213008Y152151D01*
X213104Y152105D01*
X213202Y152063D01*
X213301Y152025D01*
X213401Y151990D01*
X213503Y151959D01*
X213606Y151932D01*
X213710Y151908D01*
X213814Y151889D01*
X213920Y151873D01*
X214025Y151861D01*
X214131Y151853D01*
X214238Y151849D01*
X214344Y151849D01*
X214451Y151853D01*
X214557Y151861D01*
X214662Y151873D01*
X214768Y151889D01*
X214872Y151908D01*
X214976Y151932D01*
X215079Y151959D01*
X215181Y151990D01*
X215281Y152025D01*
X215380Y152063D01*
X215478Y152105D01*
X215574Y152151D01*
X215669Y152200D01*
X215761Y152253D01*
X215852Y152309D01*
X215940Y152368D01*
X216026Y152431D01*
X216110Y152496D01*
X216191Y152565D01*
X216270Y152637D01*
X216345Y152711D01*
X216419Y152788D01*
X216489Y152868D01*
X216556Y152951D01*
X216620Y153036D01*
X216681Y153123D01*
X216739Y153212D01*
X216793Y153304D01*
X216844Y153397D01*
X216891Y153493D01*
X216935Y153589D01*
X216976Y153688D01*
X217012Y153788D01*
X217045Y153889D01*
X217074Y153991D01*
X217099Y154095D01*
X217121Y154199D01*
X217139Y154304D01*
X217152Y154409D01*
X217162Y154515D01*
X217168Y154622D01*
X217170Y154728D01*
D11*
X254000Y330200D03*
D12*
X203200Y330200D03*
D13*
X292100Y241300D03*
X317500Y241300D03*
X317500Y317500D03*
X292100Y317500D03*
X342900Y241300D03*
X368300Y241300D03*
X342900Y317500D03*
X368300Y317500D03*
D14*
X406400Y190500D03*
X431800Y190500D03*
D15*
X203200Y177800D03*
X203200Y279400D03*
D16*
X241300Y279400D03*
X241300Y177800D03*
X419100Y342900D03*
X419100Y241300D03*
D17*
X304800Y177800D03*
X355600Y177800D03*
D18*
X419100Y336550D02*
X419100Y342900D01*
X419100Y336550D02*
X342900Y260350D01*
X342900Y241300D01*
D19*
X406400Y190500D02*
X406908Y190500D01*
D18*
X406908Y229108D02*
X419100Y241300D01*
X406908Y229108D02*
X406908Y190500D01*
X292100Y190500D02*
X292100Y241300D01*
X292100Y190500D02*
X304800Y177800D01*
X431800Y190500D02*
X431800Y222250D01*
X438150Y228600D01*
X438150Y260350D01*
X425450Y273050D01*
X368300Y273050D01*
D20*
X355600Y254000D02*
X355600Y234950D01*
D18*
X292100Y241300D02*
X292100Y255016D01*
X316992Y279908D01*
D20*
X320965Y330200D02*
X254000Y330200D01*
X316992Y279908D02*
X329184Y292100D01*
X330200Y323850D02*
X327025Y327025D01*
X330200Y323850D02*
X330200Y304800D01*
D18*
X286480Y330200D02*
X254000Y330200D01*
X286480Y330200D02*
X286734Y330454D01*
X323596Y330454D01*
X327025Y327025D01*
X330200Y293116D02*
X316992Y279908D01*
X330200Y293116D02*
X330200Y304800D01*
X355600Y228600D02*
X304800Y177800D01*
X355600Y228600D02*
X355600Y234950D01*
X355600Y260350D02*
X368300Y273050D01*
X355600Y260350D02*
X355600Y254000D01*
D19*
X367284Y240792D02*
X368300Y241300D01*
X242316Y280416D02*
X241300Y279400D01*
D18*
X255016Y280416D02*
X292100Y317500D01*
X255016Y280416D02*
X242316Y280416D01*
X355600Y177800D02*
X367284Y189484D01*
X367284Y240792D01*
X355600Y177800D02*
X368300Y165100D01*
X450850Y184150D02*
X450850Y342900D01*
X438150Y355600D01*
X209550Y355600D01*
X184150Y266700D02*
X196850Y254000D01*
X228600Y254000D01*
X241300Y266700D01*
X241300Y279400D01*
X368300Y165100D02*
X431800Y165100D01*
X450850Y184150D01*
X209550Y355600D02*
X184150Y330200D01*
X184150Y266700D01*
X203200Y330200D02*
X215900Y342900D01*
X336550Y342900D01*
X342900Y336550D01*
X342900Y317500D01*
X317500Y260350D02*
X317500Y241300D01*
X317500Y260350D02*
X342900Y285750D01*
X342900Y317500D01*
X203200Y330200D02*
X203200Y279400D01*
D19*
X242316Y207264D02*
X242316Y178308D01*
X241300Y177800D01*
D20*
X203708Y178308D02*
X203200Y177800D01*
X203708Y178308D02*
X242316Y178308D01*
X241300Y177800D02*
X241300Y228600D01*
X292100Y279400D01*
X316992Y316992D02*
X317500Y317500D01*
D18*
X317500Y304800D01*
X242316Y229616D01*
X242316Y178308D01*
X241300Y177800D02*
X203200Y177800D01*
M02*
