G04 EAGLE Gerber RS-274X export*
G75*
%MOMM*%
%FSLAX34Y34*%
%LPD*%
%IN*%
%IPPOS*%
%AMOC8*
5,1,8,0,0,1.08239X$1,22.5*%
G01*
%ADD10C,0.254000*%


D10*
X177800Y183060D02*
X177965Y179281D01*
X178459Y175531D01*
X179277Y171838D01*
X180415Y168230D01*
X181863Y164736D01*
X183609Y161380D01*
X185642Y158190D01*
X187944Y155189D01*
X190500Y152400D01*
X193289Y149844D01*
X196290Y147542D01*
X199480Y145509D01*
X202836Y143763D01*
X206330Y142315D01*
X209938Y141177D01*
X213631Y140359D01*
X217381Y139865D01*
X221160Y139700D01*
X413840Y139700D01*
X417619Y139865D01*
X421369Y140359D01*
X425062Y141177D01*
X428670Y142315D01*
X432164Y143763D01*
X435520Y145509D01*
X438710Y147542D01*
X441711Y149844D01*
X444500Y152400D01*
X447056Y155189D01*
X449358Y158190D01*
X451391Y161380D01*
X453137Y164736D01*
X454585Y168230D01*
X455723Y171838D01*
X456541Y175531D01*
X457035Y179281D01*
X457200Y183060D01*
X457200Y324940D01*
X457035Y328719D01*
X456541Y332469D01*
X455723Y336162D01*
X454585Y339770D01*
X453137Y343264D01*
X451391Y346620D01*
X449358Y349810D01*
X447056Y352811D01*
X444500Y355600D01*
X441711Y358156D01*
X438710Y360458D01*
X435520Y362491D01*
X432164Y364237D01*
X428670Y365685D01*
X425062Y366823D01*
X421369Y367641D01*
X417619Y368135D01*
X413840Y368300D01*
X221160Y368300D01*
X217381Y368135D01*
X213631Y367641D01*
X209938Y366823D01*
X206330Y365685D01*
X202836Y364237D01*
X199480Y362491D01*
X196290Y360458D01*
X193289Y358156D01*
X190500Y355600D01*
X187944Y352811D01*
X185642Y349810D01*
X183609Y346620D01*
X181863Y343264D01*
X180415Y339770D01*
X179277Y336162D01*
X178459Y332469D01*
X177965Y328719D01*
X177800Y324940D01*
X177800Y183060D01*
M02*
