M48
;GenerationSoftware,Autodesk,EAGLE,9.2.0*%
;CreationDate,2018-11-26T12:27:21Z*%
FMAT,2
ICI,OFF
METRIC,TZ,000.000
T2C0.813
T1C1.016
%
G90
M71
T1
X30480Y17780
X35560Y17780
T2
X25400Y33020
X20320Y33020
X29210Y24130
X31750Y24130
X31750Y31750
X29210Y31750
X34290Y24130
X36830Y24130
X34290Y31750
X36830Y31750
X40640Y19050
X43180Y19050
X20320Y17780
X20320Y27940
X24130Y27940
X24130Y17780
X41910Y34290
X41910Y24130
M30